arm26_states
nRows=8
nColumns=17

# SIMM Motion File Header:
name arm26_states
datacolumns 17
datarows 8
otherdata 1
range 0.41680894999999807000 0.43515902999999795000
endheader
time	r_shoulder_elev	r_elbow_flex	r_shoulder_elev_u	r_elbow_flex_u	TRIlong.activation	TRIlong.fiber_length	TRIlat.activation	TRIlat.fiber_length	TRImed.activation	TRImed.fiber_length	BIClong.activation	BIClong.fiber_length	BICshort.activation	BICshort.fiber_length	BRA.activation	BRA.fiber_length
      0.41680894999999807000	    -11.92132733101972000000	     81.83318786564518600000	     -2.67029788117956100000	    120.18606590351401000000	      0.01000940661652039900	      0.15960325084519963000	      0.03499598052583415700	      0.10107933083409662000	      0.03313590377725293700	      0.09610787729162417700	      0.21824979189350679000	      0.10874890993098264000	      0.02396625796022271200	      0.10733815083425141000	      0.01011970184102402300	      0.07188840746206628900
      0.41943038999999804000	    -11.92852041060175200000	     82.14646615134773800000	     -2.82198593365765940000	    118.82647022431314000000	      0.01000935642268971500	      0.15970230546320385000	      0.03528589376300726700	      0.10118293356036570000	      0.03341583973534410800	      0.09621150032947199700	      0.21864658492059189000	      0.10848458407609597000	      0.02385397260485714500	      0.10708340092829363000	      0.01011928528699273600	      0.07177103977598960100
      0.42205182999999802000	    -11.93613312375542700000	     82.45622210834839900000	     -2.99058160101191280000	    117.49811764038276000000	      0.01000930661921195700	      0.15980278471841577000	      0.03557808558855632400	      0.10128536841850241000	      0.03369819623769001300	      0.09631395540233717000	      0.21904220709416922000	      0.10822296074504070000	      0.02373991317308746200	      0.10683135029020532000	      0.01011887081203670900	      0.07165470163397068300
      0.42467326999999799000	    -11.94420971926976400000	     82.76253586156534000000	     -3.17470030101060320000	    116.20394158512866000000	      0.01000925718132521800	      0.15990039792697314000	      0.03587203055593258400	      0.10138666243992571000	      0.03398241510246272800	      0.09641526964374290400	      0.21943692841514872000	      0.10796401893857967000	      0.02362419220286666700	      0.10658196923162953000	      0.01011845828427048800	      0.07153937643268212800
      0.42729470999999797000	    -11.95279007023707900000	     83.06549724939789300000	     -3.37424406054564010000	    114.94218686004857000000	      0.01000920824340322200	      0.15999603286327566000	      0.03618684972353428800	      0.10148677308595053000	      0.03429074899544991300	      0.09651538697913537900	      0.21981247316299479000	      0.10770774789509752000	      0.02352512889236576400	      0.10633515604409398000	      0.01012124507201684800	      0.07142504012338155000
      0.43253758999999797000	    -11.97161938254992800000	     83.66167231707736100000	     -3.81420543474249920000	    112.51180451455004000000	      0.01000911244108790600	      0.16014600361575984000	      0.03693768067485776000	      0.10168261936634979000	      0.03504791792848350300	      0.09671104838762952000	      0.22045008024286031000	      0.10720336416606631000	      0.02344812065091618500	      0.10584770911323731000	      0.01015253338052196600	      0.07119921868731778100
      0.43384830999999796000	    -11.97669887953269800000	     83.80874380365160900000	     -3.93482879379411440000	    111.90941586125525000000	      0.01000908887897588100	      0.16024858107657319000	      0.03714307075596712200	      0.10173079153130261000	      0.03525765923377888200	      0.09675917083737230200	      0.22059288077781797000	      0.10707897544080880000	      0.02347061047613894700	      0.10572694607329768000	      0.01016412276070228700	      0.07114321462416428600
      0.43515902999999795000	    -11.98193268270794400000	     83.95504849767218000000	     -4.05269276385603390000	    111.33211670968552000000	      0.01000906534568132000	      0.16027715376663534000	      0.03734471558943783900	      0.10177856917109634000	      0.03546262986962952400	      0.09680688303057043100	      0.22073883943984615000	      0.10695525736349529000	      0.02348920777072342400	      0.10560652403484916000	      0.01017468722739160600	      0.07108747208594341800
